<svg version="1.1" xmlns="http://www.w3.org/2000/svg" viewBox="0 0 936.9715160142791 491.4340263809288" width="936.9715160142791" height="491.4340263809288" filter="invert(93%) hue-rotate(180deg)">
  <!-- svg-source:excalidraw -->
  
  <defs>
    <style class="style-fonts">
      @font-face {
        font-family: "Virgil";
        src: url("https://excalidraw.com/Virgil.woff2");
      }
      @font-face {
        font-family: "Cascadia";
        src: url("https://excalidraw.com/Cascadia.woff2");
      }
    </style>
    <clipPath id="5zvfwO1eo3pXbL0X4743l">
            <rect transform="translate(0 0) rotate(0 458.48575800713957 235.7170131904644)" width="916.9715160142791" height="471.4340263809288">
          </rect>
        </clipPath>
  </defs>
  <g clip-path="url(#5zvfwO1eo3pXbL0X4743l)"><g stroke-linecap="round" transform="translate(35.11402237710445 281.3971509511706) rotate(0 258.44635233434633 37.38304655623821)"><path d="M19.59 1.97 L501.22 1.65 L510.89 6.66 L514.06 8.85 L515.91 20.43 L516.35 60.34 L513 68.33 L507.49 73.03 L496.26 75.54 L15.16 76.11 L2.82 71.03 L0.8 64.75 L-0.43 17.28 L-0.49 11.77 L2.74 4.54 L10.59 -0.38 L19.27 -0.79" stroke="none" stroke-width="0" fill="#a5d8ff"></path><path d="M18.69 0 M18.69 0 C166.69 0.76, 312.97 1.43, 498.2 0 M18.69 0 C142.83 0.83, 267.08 0.62, 498.2 0 M498.2 0 C509.41 -0.49, 518.7 7.59, 516.89 18.69 M498.2 0 C508.85 -0.73, 515.73 4.1, 516.89 18.69 M516.89 18.69 C518.2 28.28, 516.23 37.82, 516.89 56.07 M516.89 18.69 C516.23 27.01, 516.57 35.75, 516.89 56.07 M516.89 56.07 C516.48 68.6, 510.04 75.24, 498.2 74.77 M516.89 56.07 C516.44 70.57, 510.61 75.87, 498.2 74.77 M498.2 74.77 C332.7 74.44, 167.91 73.71, 18.69 74.77 M498.2 74.77 C322.8 76.86, 147.73 76.68, 18.69 74.77 M18.69 74.77 C4.44 72.88, -1.29 67.71, 0 56.07 M18.69 74.77 C8.42 76.75, 2.07 67.5, 0 56.07 M0 56.07 C-0.13 46.41, -0.92 39.57, 0 18.69 M0 56.07 C0.03 41.74, 1.02 28.62, 0 18.69 M0 18.69 C1.73 5.77, 6.37 0.53, 18.69 0 M0 18.69 C0.6 7.18, 4.25 0, 18.69 0" stroke="#1971c2" stroke-width="1" fill="none"></path></g></g><g clip-path="url(#5zvfwO1eo3pXbL0X4743l)"><g transform="translate(275.9403872236576 306.28019750740884) rotate(0 17.61998748779297 12.5)"><text x="17.61998748779297" y="0" font-family="Virgil, Segoe UI Emoji" font-size="20px" fill="#1971c2" text-anchor="middle" style="white-space: pre;" direction="ltr" dominant-baseline="text-before-edge">Bun</text></g></g><g clip-path="url(#5zvfwO1eo3pXbL0X4743l)"><g stroke-linecap="round" transform="translate(32.957373337556874 182.18813588173683) rotate(0 54.63679832318303 48.52608428837223)"><path d="M23.07 -1.43 L89.71 0.07 L101.67 4.47 L103.23 4.33 L108.05 13.32 L110.56 26.1 L109.8 77.45 L107.83 85.93 L102.95 92.77 L95.13 96.56 L85.11 96.27 L18.09 95.02 L7.92 94.31 L7.91 91.12 L1.91 87.4 L-1.05 77.9 L1.56 19.2 L1.48 12.22 L4.7 5.38 L14.19 0.73 L24.49 -1.59" stroke="none" stroke-width="0" fill="#d0bfff"></path><path d="M24.26 0 M24.26 0 C46.29 -1.22, 66.77 -0.17, 85.01 0 M24.26 0 C40.28 -0.69, 56.72 -0.44, 85.01 0 M85.01 0 C103.11 1.1, 107.35 7.5, 109.27 24.26 M85.01 0 C100.41 -0.15, 107.63 6.86, 109.27 24.26 M109.27 24.26 C108.01 37.3, 106.98 47.12, 109.27 72.79 M109.27 24.26 C109.38 38.56, 108.79 53.76, 109.27 72.79 M109.27 72.79 C109.81 88.77, 100.43 98.16, 85.01 97.05 M109.27 72.79 C111.51 89.81, 99.96 98.65, 85.01 97.05 M85.01 97.05 C60.05 95.48, 38.37 96.73, 24.26 97.05 M85.01 97.05 C61.9 97.91, 36.87 97.25, 24.26 97.05 M24.26 97.05 C9.62 96.46, 1.62 87.73, 0 72.79 M24.26 97.05 C9.61 98.35, 1.6 88.26, 0 72.79 M0 72.79 C-0.36 57.62, 0.66 39.88, 0 24.26 M0 72.79 C0.81 57.43, 0.78 43.21, 0 24.26 M0 24.26 C-1.19 7.02, 7.52 -0.5, 24.26 0 M0 24.26 C1.95 9.88, 7.93 -2.13, 24.26 0" stroke="#6741d9" stroke-width="1" fill="none"></path></g></g><g clip-path="url(#5zvfwO1eo3pXbL0X4743l)"><g transform="translate(55.16420187314225 218.2142201701091) rotate(0 32.429969787597656 12.5)"><text x="32.429969787597656" y="0" font-family="Virgil, Segoe UI Emoji" font-size="20px" fill="#6741d9" text-anchor="middle" style="white-space: pre;" direction="ltr" dominant-baseline="text-before-edge">SQLite</text></g></g><g clip-path="url(#5zvfwO1eo3pXbL0X4743l)"><g stroke-linecap="round" transform="translate(145.10654591512912 180.7503479161346) rotate(0 287.9214334443416 48.16665375140013)"><path d="M24.44 -1.8 L557.45 1.43 L566.01 5.35 L573.44 10.93 L575.98 13.02 L577.64 22.35 L577.41 78.48 L568.11 91.3 L562.46 94.2 L553.26 96.96 L16.69 96.08 L9.21 92.27 L1.83 86.25 L2.31 83.22 L1.27 71.96 L1.42 22.63 L1.02 13.77 L7.87 7.49 L13.82 -0.47 L23.64 0.21" stroke="none" stroke-width="0" fill="#b2f2bb"></path><path d="M24.08 0 M24.08 0 C152.9 1.16, 283 0.38, 551.76 0 M24.08 0 C217.97 2.05, 412.11 1.87, 551.76 0 M551.76 0 C569.29 -1.52, 577.07 6.29, 575.84 24.08 M551.76 0 C568.4 -1.95, 577.56 8.49, 575.84 24.08 M575.84 24.08 C573.84 39.95, 575.87 54.9, 575.84 72.25 M575.84 24.08 C575.36 34.16, 575.37 43.61, 575.84 72.25 M575.84 72.25 C574.68 88.83, 566.81 96.1, 551.76 96.33 M575.84 72.25 C577.01 90.2, 568.25 94.56, 551.76 96.33 M551.76 96.33 C377.54 97.17, 203.38 96.99, 24.08 96.33 M551.76 96.33 C391.23 97.26, 231 96.87, 24.08 96.33 M24.08 96.33 C8.48 95.55, -1.79 89.05, 0 72.25 M24.08 96.33 C8.43 96.75, 1.86 90.56, 0 72.25 M0 72.25 C0.97 56.08, -1.28 39.59, 0 24.08 M0 72.25 C0.25 55.99, -0.34 40.59, 0 24.08 M0 24.08 C1.62 8.96, 8.86 0.02, 24.08 0 M0 24.08 C-1.79 7.37, 8.49 1.96, 24.08 0" stroke="#2f9e44" stroke-width="1" fill="none"></path></g></g><g clip-path="url(#5zvfwO1eo3pXbL0X4743l)"><g transform="translate(407.5479988907209 185.7503479161346) rotate(0 25.47998046875 12.5)"><text x="25.47998046875" y="0" font-family="Virgil, Segoe UI Emoji" font-size="20px" fill="#2f9e44" text-anchor="middle" style="white-space: pre;" direction="ltr" dominant-baseline="text-before-edge">tRPC</text></g></g><g clip-path="url(#5zvfwO1eo3pXbL0X4743l)"><g stroke-linecap="round" transform="translate(284.5740847454349 239.7006417715534) rotate(0 130.84074521897628 20.848254589808676)"><path d="M9.43 -0.71 L250.97 -1.45 L259.49 1.81 L261.87 4.48 L260.87 29.9 L260.76 40.17 L249.36 42.86 L9.81 40.64 L3.76 39.81 L1.3 29.78 L0.19 5.32 L1.58 3.92 L12.11 1.84" stroke="none" stroke-width="0" fill="#99e9f2"></path><path d="M10.42 0 M10.42 0 C61.71 1.61, 111.48 1.65, 251.26 0 M10.42 0 C67.44 -0.32, 124.44 -0.46, 251.26 0 M251.26 0 C257.28 0.77, 261.81 4.17, 261.68 10.42 M251.26 0 C259.45 0.07, 261.22 3.1, 261.68 10.42 M261.68 10.42 C262.6 17.45, 263.78 21.31, 261.68 31.27 M261.68 10.42 C260.99 17.23, 262.61 23.23, 261.68 31.27 M261.68 31.27 C262.08 37.28, 257.48 43.26, 251.26 41.7 M261.68 31.27 C261.16 39.91, 259.94 42.38, 251.26 41.7 M251.26 41.7 C197.9 42.36, 145.45 41.43, 10.42 41.7 M251.26 41.7 C178.98 41.94, 108.14 42.26, 10.42 41.7 M10.42 41.7 C4.11 43.53, 1.38 39.13, 0 31.27 M10.42 41.7 C2.85 39.51, -1.28 38.42, 0 31.27 M0 31.27 C-0.11 23.09, 1.37 16.89, 0 10.42 M0 31.27 C-0.73 24.84, -0.52 17.38, 0 10.42 M0 10.42 C-0.9 3.55, 4.77 -1.44, 10.42 0 M0 10.42 C1.09 3.39, 4.42 2.12, 10.42 0" stroke="#0c8599" stroke-width="1" fill="none"></path></g></g><g clip-path="url(#5zvfwO1eo3pXbL0X4743l)"><g transform="translate(377.4948699424385 248.04889636136207) rotate(0 37.919960021972656 12.5)"><text x="37.919960021972656" y="0" font-family="Virgil, Segoe UI Emoji" font-size="20px" fill="#0c8599" text-anchor="middle" style="white-space: pre;" direction="ltr" dominant-baseline="text-before-edge">Express</text></g></g><g clip-path="url(#5zvfwO1eo3pXbL0X4743l)"><g stroke-linecap="round" transform="translate(555.6012956863756 282.116077842829) rotate(0 169.3021162949874 36.30468912760759)"><path d="M18.4 -0.65 L323.43 1.76 L335.53 5.89 L337.45 10.59 L339.43 56.83 L334.53 70 L330.24 69.95 L319.17 71.94 L15.51 72.81 L6.68 70.03 L0.77 63.8 L0.17 17.65 L-0.45 9.93 L4.4 4.29 L11.94 2.28 L16.5 -1.2" stroke="none" stroke-width="0" fill="#e9ecef"></path><path d="M18.15 0 M18.15 0 C119.33 -2.08, 219.33 -1.89, 320.45 0 M18.15 0 C89.02 0.13, 159.14 0.89, 320.45 0 M320.45 0 C332.07 -0.04, 339.17 6.06, 338.6 18.15 M320.45 0 C333.61 -0.41, 336.71 6.28, 338.6 18.15 M338.6 18.15 C340.03 32.57, 340.44 44.47, 338.6 54.46 M338.6 18.15 C338.98 27.81, 339.6 38.21, 338.6 54.46 M338.6 54.46 C339.94 66.08, 330.76 70.81, 320.45 72.61 M338.6 54.46 C339.56 64.74, 332.98 73.73, 320.45 72.61 M320.45 72.61 C257.14 71.85, 194.49 72.28, 18.15 72.61 M320.45 72.61 C238.87 73.58, 155.71 72.52, 18.15 72.61 M18.15 72.61 C4.09 71.52, -1.28 66.7, 0 54.46 M18.15 72.61 C4.3 70.64, 2.08 67.32, 0 54.46 M0 54.46 C1.59 42.35, 1.43 27.66, 0 18.15 M0 54.46 C-0.07 40.39, 0.22 27.41, 0 18.15 M0 18.15 C1.45 6.02, 6.19 1.58, 18.15 0 M0 18.15 C-0.66 6.7, 4.97 -0.22, 18.15 0" stroke="#1e1e1e" stroke-width="1" fill="none"></path></g></g><g clip-path="url(#5zvfwO1eo3pXbL0X4743l)"><g transform="translate(686.5034486024565 305.9207669704366) rotate(0 38.39996337890625 12.5)"><text x="38.39996337890625" y="0" font-family="Virgil, Segoe UI Emoji" font-size="20px" fill="#1e1e1e" text-anchor="middle" style="white-space: pre;" direction="ltr" dominant-baseline="text-before-edge">Browser</text></g></g><g clip-path="url(#5zvfwO1eo3pXbL0X4743l)"><g stroke-linecap="round" transform="translate(562.7904329675312 202.31762812417256) rotate(0 162.11304483154595 36.664119664579744)"><path d="M19.74 -1.33 L311.27 -1.17 L317.1 2.82 L324.48 11.01 L324.05 20.17 L324.84 57.46 L318.27 67.07 L312.75 72.85 L306.49 72.12 L13.76 74.2 L2.74 69.32 L0.56 64.85 L-1.98 17.54 L0.12 10.38 L3.74 3.01 L9.1 -0.37 L17.18 0.22" stroke="none" stroke-width="0" fill="#ffc9c9"></path><path d="M18.33 0 M18.33 0 C111.19 2.31, 206.22 0.24, 305.89 0 M18.33 0 C82.37 -1.35, 147.45 -1.01, 305.89 0 M305.89 0 C318.48 -1.78, 324.9 4.21, 324.23 18.33 M305.89 0 C317.77 0.13, 326.23 6.97, 324.23 18.33 M324.23 18.33 C324.05 33.19, 324.47 43.23, 324.23 55 M324.23 18.33 C325.18 30.23, 324.25 42.08, 324.23 55 M324.23 55 C324.72 66.32, 316.56 73.36, 305.89 73.33 M324.23 55 C324.87 65.6, 318.58 74.35, 305.89 73.33 M305.89 73.33 C200.79 71.21, 95.49 71.57, 18.33 73.33 M305.89 73.33 C199.56 73.39, 94.65 72.82, 18.33 73.33 M18.33 73.33 C6.22 72.03, 1.86 65.83, 0 55 M18.33 73.33 C4.65 73.87, 1.71 66.07, 0 55 M0 55 C-0.95 44.84, 0.7 31.08, 0 18.33 M0 55 C-0.08 42.32, -0.08 32.16, 0 18.33 M0 18.33 C-0.73 4.8, 4.17 -1.44, 18.33 0 M0 18.33 C2.02 7.42, 6.37 -1.31, 18.33 0" stroke="#e03131" stroke-width="1" fill="none"></path></g></g><g clip-path="url(#5zvfwO1eo3pXbL0X4743l)"><g transform="translate(695.3134967199753 207.31762812417256) rotate(0 29.589981079101562 25)"><text x="29.589981079101562" y="0" font-family="Virgil, Segoe UI Emoji" font-size="20px" fill="#e03131" text-anchor="middle" style="white-space: pre;" direction="ltr" dominant-baseline="text-before-edge">React</text><text x="29.589981079101562" y="25" font-family="Virgil, Segoe UI Emoji" font-size="20px" fill="#e03131" text-anchor="middle" style="white-space: pre;" direction="ltr" dominant-baseline="text-before-edge">(vite)</text></g></g><g clip-path="url(#5zvfwO1eo3pXbL0X4743l)"><g stroke-linecap="round" transform="translate(80.40503437958523 242.5762835204729) rotate(0 67.93651800372095 17.5)"><path d="M7.09 -1.7 L132.76 1.04 L133.88 5.94 L133.5 29.85 L132.9 34.35 L127.54 34.26 L5.88 34.31 L1.89 29.35 L1.28 8.86 L2.19 3.6 L8.56 0.13" stroke="none" stroke-width="0" fill="#eaddd7"></path><path d="M8.75 0 M8.75 0 C43.82 2.53, 76.33 -0.07, 127.12 0 M8.75 0 C37.46 -1.05, 65.49 -1.05, 127.12 0 M127.12 0 C131.42 1.59, 136.6 4.42, 135.87 8.75 M127.12 0 C130.73 -1.55, 137.87 4.83, 135.87 8.75 M135.87 8.75 C134.85 13.16, 134.03 20.58, 135.87 26.25 M135.87 8.75 C135.39 15.13, 136.16 21.17, 135.87 26.25 M135.87 26.25 C135.61 31.02, 133.34 35.45, 127.12 35 M135.87 26.25 C133.91 30.08, 133.81 33.43, 127.12 35 M127.12 35 C91.64 34.59, 56.22 33.88, 8.75 35 M127.12 35 C98.37 35.85, 69.86 35.49, 8.75 35 M8.75 35 C2.64 36.91, -1.82 33.63, 0 26.25 M8.75 35 C4.85 32.91, -1.61 31.68, 0 26.25 M0 26.25 C-0.12 19.74, 1.51 16.54, 0 8.75 M0 26.25 C0.7 20.74, 0.39 15.94, 0 8.75 M0 8.75 C-0.98 2.44, 3.58 -1.72, 8.75 0 M0 8.75 C-1.82 4.83, 3.83 1.18, 8.75 0" stroke="#846358" stroke-width="1" fill="none"></path></g></g><g clip-path="url(#5zvfwO1eo3pXbL0X4743l)"><g transform="translate(114.51158869922392 247.5762835204729) rotate(0 33.82996368408203 12.5)"><text x="33.82996368408203" y="0" font-family="Virgil, Segoe UI Emoji" font-size="20px" fill="#846358" text-anchor="middle" style="white-space: pre;" direction="ltr" dominant-baseline="text-before-edge">Drizzle</text></g></g><g clip-path="url(#5zvfwO1eo3pXbL0X4743l)"><g stroke-linecap="round"><g transform="translate(32.9573075198432 413.67561831803516) rotate(0 428.4899498153852 0.39264044218396066)"><path d="M-0.72 0.95 C142.41 0.97, 714.61 -0.33, 857.7 -0.31 M1.11 0.4 C144.24 0.64, 714.42 1.26, 857.15 1.06" stroke="#1e1e1e" stroke-width="1" fill="none"></path></g><g transform="translate(32.9573075198432 413.67561831803516) rotate(0 428.4899498153852 0.39264044218396066)"><path d="M29.04 -8.09 C20.99 -5.92, 17.3 -6.16, -1.98 -0.04 M26.92 -9.51 C18.58 -6.57, 9.11 -2.81, -1.58 0.1" stroke="#1e1e1e" stroke-width="1" fill="none"></path></g><g transform="translate(32.9573075198432 413.67561831803516) rotate(0 428.4899498153852 0.39264044218396066)"><path d="M29.07 12.43 C21.09 10.3, 17.4 5.74, -1.98 -0.04 M26.96 11.01 C18.7 7.48, 9.23 4.79, -1.58 0.1" stroke="#1e1e1e" stroke-width="1" fill="none"></path></g><g transform="translate(32.9573075198432 413.67561831803516) rotate(0 428.4899498153852 0.39264044218396066)"><path d="M830.54 12.59 C834.39 10.78, 842.53 6.22, 855.88 0.07 M828.42 11.16 C837.92 7.91, 846.22 5.2, 856.28 0.21" stroke="#1e1e1e" stroke-width="1" fill="none"></path></g><g transform="translate(32.9573075198432 413.67561831803516) rotate(0 428.4899498153852 0.39264044218396066)"><path d="M830.54 -7.93 C834.31 -5.44, 842.45 -5.69, 855.88 0.07 M828.42 -9.36 C837.83 -6.14, 846.12 -2.39, 856.28 0.21" stroke="#1e1e1e" stroke-width="1" fill="none"></path></g></g><mask></mask></g><g clip-path="url(#5zvfwO1eo3pXbL0X4743l)"><g transform="translate(129.29054920492945 425.8970463876568) rotate(0 39.65997314453125 12.5)"><text x="0" y="0" font-family="Virgil, Segoe UI Emoji" font-size="20px" fill="#1e1e1e" text-anchor="start" style="white-space: pre;" direction="ltr" dominant-baseline="text-before-edge">Backend</text></g></g><g clip-path="url(#5zvfwO1eo3pXbL0X4743l)"><g transform="translate(691.7135175909002 424.1806206739619) rotate(0 41.72996520996094 12.5)"><text x="0" y="0" font-family="Virgil, Segoe UI Emoji" font-size="20px" fill="#1e1e1e" text-anchor="start" style="white-space: pre;" direction="ltr" dominant-baseline="text-before-edge">Frontend</text></g></g><g clip-path="url(#5zvfwO1eo3pXbL0X4743l)"><g stroke-linecap="round" transform="translate(569.2605775393126 232.51157030811217) rotate(0 62.544730860568734 17.5)"><path d="M8.38 -0.75 L118.46 -0.26 L125.27 6.34 L126.4 30.94 L122.13 35.56 L114.63 34.7 L3.52 34.13 L1.28 29.02 L-1.85 10.5 L1.73 2.29 L7.09 1.23" stroke="none" stroke-width="0" fill="#96f2d7"></path><path d="M8.75 0 M8.75 0 C42.03 1.24, 78.34 -1.98, 116.34 0 M8.75 0 C32.54 1.03, 57.32 -0.11, 116.34 0 M116.34 0 C123.76 0.35, 124.34 2.55, 125.09 8.75 M116.34 0 C122.71 0.46, 123.01 2.9, 125.09 8.75 M125.09 8.75 C125.79 14.96, 123.97 22.01, 125.09 26.25 M125.09 8.75 C125.66 15.11, 125.82 22.14, 125.09 26.25 M125.09 26.25 C124.72 30.91, 122.94 33.07, 116.34 35 M125.09 26.25 C126.38 31.91, 120.17 34.52, 116.34 35 M116.34 35 C93.95 33.7, 70.17 34.92, 8.75 35 M116.34 35 C84.94 34.78, 51.71 35.14, 8.75 35 M8.75 35 C1.65 33.37, 0.01 30.09, 0 26.25 M8.75 35 C5.18 36.94, 2.07 33.03, 0 26.25 M0 26.25 C-0.96 18.98, -0.93 15.46, 0 8.75 M0 26.25 C-0.6 19.41, 0.35 12.53, 0 8.75 M0 8.75 C1.49 2.61, 4.51 1.58, 8.75 0 M0 8.75 C1.49 3.78, 1.2 0.65, 8.75 0" stroke="#099268" stroke-width="1" fill="none"></path></g></g><g clip-path="url(#5zvfwO1eo3pXbL0X4743l)"><g transform="translate(574.9853621108191 237.51157030811217) rotate(0 56.8199462890625 12.5)"><text x="56.8199462890625" y="0" font-family="Virgil, Segoe UI Emoji" font-size="20px" fill="#099268" text-anchor="middle" style="white-space: pre;" direction="ltr" dominant-baseline="text-before-edge">react-query</text></g></g><g clip-path="url(#5zvfwO1eo3pXbL0X4743l)"><g stroke-linecap="round" transform="translate(774.1482257082512 203.03642338040268) rotate(0 54.99629467786963 35)"><path d="M16.01 0.99 L94.21 -0.59 L102.71 2.6 L106.84 8.16 L108.74 12.26 L108.93 50.51 L106.48 62.03 L98.18 68.92 L92.17 70.04 L16.83 71.12 L8.67 66.07 L3.3 63.47 L0.56 57.28 L2.09 13.17 L0.69 7.89 L7.7 1.42 L18.61 0.44" stroke="none" stroke-width="0" fill="#fcc2d7"></path><path d="M17.5 0 M17.5 0 C46.58 0.26, 76.26 -0.58, 92.49 0 M17.5 0 C33.39 -0.61, 50.96 -0.48, 92.49 0 M92.49 0 C103.16 1.46, 108.32 5.71, 109.99 17.5 M92.49 0 C104.48 1.54, 109.2 7.64, 109.99 17.5 M109.99 17.5 C110.99 27.49, 110.29 37.23, 109.99 52.5 M109.99 17.5 C109.34 28.03, 110.71 37.23, 109.99 52.5 M109.99 52.5 C108.68 64.58, 105.31 69.15, 92.49 70 M109.99 52.5 C107.79 65.52, 105.25 70.08, 92.49 70 M92.49 70 C74.99 68.85, 60.16 69.12, 17.5 70 M92.49 70 C77.92 70.71, 61.21 70.39, 17.5 70 M17.5 70 C6.05 70.16, 0.44 63.23, 0 52.5 M17.5 70 C7.82 71.22, 0.55 64.87, 0 52.5 M0 52.5 C-0.01 41.52, -0.85 33.05, 0 17.5 M0 52.5 C-0.43 42.36, -0.33 33.33, 0 17.5 M0 17.5 C1.44 4.5, 4.72 -1.11, 17.5 0 M0 17.5 C0.06 7.22, 6.07 -2.26, 17.5 0" stroke="#c2255c" stroke-width="1" fill="none"></path></g></g><g clip-path="url(#5zvfwO1eo3pXbL0X4743l)"><g transform="translate(785.4325452884646 208.03642338040268) rotate(0 43.71197509765625 30)"><text x="43.71197509765625" y="0" font-family="Virgil, Segoe UI Emoji" font-size="16px" fill="#c2255c" text-anchor="middle" style="white-space: pre;" direction="ltr" dominant-baseline="text-before-edge">tailwind</text><text x="43.71197509765625" y="20" font-family="Virgil, Segoe UI Emoji" font-size="16px" fill="#c2255c" text-anchor="middle" style="white-space: pre;" direction="ltr" dominant-baseline="text-before-edge">headless-ui</text><text x="43.71197509765625" y="40" font-family="Virgil, Segoe UI Emoji" font-size="16px" fill="#c2255c" text-anchor="middle" style="white-space: pre;" direction="ltr" dominant-baseline="text-before-edge">nivo charts</text></g></g><g clip-path="url(#5zvfwO1eo3pXbL0X4743l)"><g transform="translate(361.49695853288586 22.966976919914345) rotate(0 64.50994110107422 12.5)"><text x="0" y="0" font-family="Virgil, Segoe UI Emoji" font-size="20px" fill="#1e1e1e" text-anchor="start" style="white-space: pre;" direction="ltr" dominant-baseline="text-before-edge">Type Safety!</text></g></g><g clip-path="url(#5zvfwO1eo3pXbL0X4743l)"><g stroke-linecap="round"><g transform="translate(347.51969351299385 41.36646627709493) rotate(0 -107.97294810794506 95.83879889132187)"><path d="M-0.21 0.58 C-26.03 8.68, -118.79 16.25, -154.65 48.12 C-190.51 80, -205.21 167.89, -215.35 191.83 M-1.78 -0.15 C-27.26 8.19, -116.87 18.02, -152.53 49.68 C-188.19 81.35, -205.33 166.53, -215.73 189.85" stroke="#1e1e1e" stroke-width="1" fill="none"></path></g><g transform="translate(347.51969351299385 41.36646627709493) rotate(0 -107.97294810794506 95.83879889132187)"><path d="M-215.6 157.99 C-216.35 170.65, -215 179.98, -214.66 191.51 M-216.52 160.31 C-215.45 169.82, -215.22 180.09, -216.24 190.54" stroke="#1e1e1e" stroke-width="1" fill="none"></path></g><g transform="translate(347.51969351299385 41.36646627709493) rotate(0 -107.97294810794506 95.83879889132187)"><path d="M-196.12 164.47 C-203.07 175.03, -207.96 182.28, -214.66 191.51 M-197.05 166.79 C-202.23 174.3, -208.25 182.5, -216.24 190.54" stroke="#1e1e1e" stroke-width="1" fill="none"></path></g></g><mask></mask></g><g clip-path="url(#5zvfwO1eo3pXbL0X4743l)"><g stroke-linecap="round"><g transform="translate(500.23502286448775 48.422695794824875) rotate(0 91.68854208811581 87.60508255766284)"><path d="M-0.96 -0.32 C22.04 4.94, 107.81 2.8, 138.69 32.09 C169.57 61.38, 176.68 151.46, 184.33 175.44 M0.74 -1.54 C24.06 3.8, 110.55 3.37, 140.99 33.09 C171.42 62.8, 176.05 153.31, 183.34 176.75" stroke="#1e1e1e" stroke-width="1" fill="none"></path></g><g transform="translate(500.23502286448775 48.422695794824875) rotate(0 91.68854208811581 87.60508255766284)"><path d="M167.59 149.58 C171.98 159.57, 179.12 169.28, 184.23 178.02 M169.04 151.31 C173.59 159.88, 179.07 168.08, 182.57 177.57" stroke="#1e1e1e" stroke-width="1" fill="none"></path></g><g transform="translate(500.23502286448775 48.422695794824875) rotate(0 91.68854208811581 87.60508255766284)"><path d="M187.77 145.85 C184.92 157.02, 184.82 168.07, 184.23 178.02 M189.22 147.58 C187.12 157.5, 185.93 166.94, 182.57 177.57" stroke="#1e1e1e" stroke-width="1" fill="none"></path></g></g><mask></mask></g><g clip-path="url(#5zvfwO1eo3pXbL0X4743l)"><g transform="translate(279.42410514022504 64.9744475449472) rotate(0 156.47991943359375 10)"><text x="156.47991943359375" y="0" font-family="Virgil, Segoe UI Emoji" font-size="16px" fill="#1e1e1e" text-anchor="middle" style="white-space: pre;" direction="ltr" dominant-baseline="text-before-edge">SQLite Schema, to API, to Browser TS</text></g></g></svg>